<svg width="196" height="25" viewBox="0 0 196 25" fill="none" xmlns="http://www.w3.org/2000/svg">
<path d="M16.4545 8.25C16.2955 7.69697 16.072 7.20833 15.7841 6.78409C15.4962 6.35227 15.1439 5.98864 14.7273 5.69318C14.3182 5.39015 13.8485 5.15909 13.3182 5C12.7955 4.84091 12.2159 4.76136 11.5795 4.76136C10.3902 4.76136 9.3447 5.05682 8.44318 5.64773C7.54924 6.23864 6.85227 7.09848 6.35227 8.22727C5.85227 9.34848 5.60227 10.7197 5.60227 12.3409C5.60227 13.9621 5.84849 15.3409 6.34091 16.4773C6.83333 17.6136 7.5303 18.4811 8.43182 19.0795C9.33333 19.6705 10.3977 19.9659 11.625 19.9659C12.7386 19.9659 13.6894 19.7689 14.4773 19.375C15.2727 18.9735 15.8788 18.4091 16.2955 17.6818C16.7197 16.9545 16.9318 16.0947 16.9318 15.1023L17.9318 15.25H11.9318V11.5455H21.6705V14.4773C21.6705 16.5227 21.2386 18.2803 20.375 19.75C19.5114 21.2121 18.322 22.3409 16.8068 23.1364C15.2917 23.9242 13.5568 24.3182 11.6023 24.3182C9.42045 24.3182 7.50379 23.8371 5.85227 22.875C4.20076 21.9053 2.91288 20.5303 1.98864 18.75C1.07197 16.9621 0.613636 14.8409 0.613636 12.3864C0.613636 10.5 0.886364 8.81818 1.43182 7.34091C1.98485 5.85606 2.75758 4.59848 3.75 3.56818C4.74242 2.53788 5.89773 1.75379 7.21591 1.21591C8.53409 0.678029 9.96212 0.40909 11.5 0.40909C12.8182 0.40909 14.0455 0.602272 15.1818 0.988636C16.3182 1.36742 17.3258 1.9053 18.2045 2.60227C19.0909 3.29924 19.8144 4.12879 20.375 5.09091C20.9356 6.04545 21.2955 7.09848 21.4545 8.25H16.4545ZM33.6165 24H25.3665V0.727272H33.6847C36.0256 0.727272 38.0407 1.19318 39.7301 2.125C41.4195 3.04924 42.7188 4.37879 43.6278 6.11364C44.5445 7.84848 45.0028 9.92424 45.0028 12.3409C45.0028 14.7652 44.5445 16.8485 43.6278 18.5909C42.7188 20.3333 41.4119 21.6705 39.7074 22.6023C38.0104 23.5341 35.9801 24 33.6165 24ZM30.2869 19.7841H33.4119C34.8665 19.7841 36.09 19.5265 37.0824 19.0114C38.0824 18.4886 38.8324 17.6818 39.3324 16.5909C39.84 15.4924 40.0938 14.0758 40.0938 12.3409C40.0938 10.6212 39.84 9.21591 39.3324 8.125C38.8324 7.03409 38.0862 6.23106 37.0938 5.71591C36.1013 5.20076 34.8778 4.94318 33.4233 4.94318H30.2869V19.7841ZM61.2727 7.42045C61.1818 6.50379 60.7917 5.79167 60.1023 5.28409C59.4129 4.77651 58.4773 4.52273 57.2955 4.52273C56.4924 4.52273 55.8144 4.63636 55.2614 4.86364C54.7083 5.08333 54.2841 5.39015 53.9886 5.78409C53.7008 6.17803 53.5568 6.625 53.5568 7.125C53.5417 7.54167 53.6288 7.9053 53.8182 8.21591C54.0152 8.52652 54.2841 8.79545 54.625 9.02273C54.9659 9.24242 55.3598 9.43561 55.8068 9.60227C56.2538 9.76136 56.7311 9.89773 57.2386 10.0114L59.3295 10.5114C60.3447 10.7386 61.2765 11.0417 62.125 11.4205C62.9735 11.7992 63.7083 12.2652 64.3295 12.8182C64.9508 13.3712 65.4318 14.0227 65.7727 14.7727C66.1212 15.5227 66.2992 16.3826 66.3068 17.3523C66.2992 18.7765 65.9356 20.0114 65.2159 21.0568C64.5038 22.0947 63.4735 22.9015 62.125 23.4773C60.7841 24.0455 59.1667 24.3295 57.2727 24.3295C55.3939 24.3295 53.7576 24.0417 52.3636 23.4659C50.9773 22.8902 49.8939 22.0379 49.1136 20.9091C48.3409 19.7727 47.9356 18.3674 47.8977 16.6932H52.6591C52.7121 17.4735 52.9356 18.125 53.3295 18.6477C53.7311 19.1629 54.2652 19.553 54.9318 19.8182C55.6061 20.0758 56.3674 20.2045 57.2159 20.2045C58.0492 20.2045 58.7727 20.0833 59.3864 19.8409C60.0076 19.5985 60.4886 19.2614 60.8295 18.8295C61.1705 18.3977 61.3409 17.9015 61.3409 17.3409C61.3409 16.8182 61.1856 16.3788 60.875 16.0227C60.572 15.6667 60.125 15.3636 59.5341 15.1136C58.9508 14.8636 58.2348 14.6364 57.3864 14.4318L54.8523 13.7955C52.8902 13.3182 51.3409 12.572 50.2045 11.5568C49.0682 10.5417 48.5038 9.17424 48.5114 7.45454C48.5038 6.04545 48.8788 4.81439 49.6364 3.76136C50.4015 2.70833 51.4508 1.88636 52.7841 1.29545C54.1174 0.704545 55.6326 0.40909 57.3295 0.40909C59.0568 0.40909 60.5644 0.704545 61.8523 1.29545C63.1477 1.88636 64.1553 2.70833 64.875 3.76136C65.5947 4.81439 65.9659 6.03409 65.9886 7.42045H61.2727ZM90.1506 8.875H85.1733C85.0824 8.23106 84.8968 7.65909 84.6165 7.15909C84.3362 6.65151 83.9763 6.2197 83.5369 5.86364C83.0975 5.50757 82.59 5.23485 82.0142 5.04545C81.446 4.85606 80.8286 4.76136 80.1619 4.76136C78.9574 4.76136 77.9081 5.06061 77.0142 5.65909C76.1203 6.25 75.4271 7.11364 74.9347 8.25C74.4422 9.37879 74.196 10.75 74.196 12.3636C74.196 14.0227 74.4422 15.4167 74.9347 16.5455C75.4347 17.6742 76.1316 18.5265 77.0256 19.1023C77.9195 19.678 78.9536 19.9659 80.1278 19.9659C80.7869 19.9659 81.3968 19.8788 81.9574 19.7045C82.5256 19.5303 83.0294 19.2765 83.4688 18.9432C83.9081 18.6023 84.2718 18.1894 84.5597 17.7045C84.8551 17.2197 85.0597 16.6667 85.1733 16.0455L90.1506 16.0682C90.0218 17.1364 89.6998 18.1667 89.1847 19.1591C88.6771 20.1439 87.9915 21.0265 87.1278 21.8068C86.2718 22.5795 85.2491 23.1932 84.0597 23.6477C82.8778 24.0947 81.5407 24.3182 80.0483 24.3182C77.9725 24.3182 76.1165 23.8485 74.4801 22.9091C72.8513 21.9697 71.5634 20.6098 70.6165 18.8295C69.6771 17.0492 69.2074 14.8939 69.2074 12.3636C69.2074 9.82576 69.6847 7.66667 70.6392 5.88636C71.5938 4.10606 72.8892 2.75 74.5256 1.81818C76.1619 0.878787 78.0028 0.40909 80.0483 0.40909C81.3968 0.40909 82.6468 0.598484 83.7983 0.977272C84.9574 1.35606 85.9839 1.90909 86.8778 2.63636C87.7718 3.35606 88.4991 4.23864 89.0597 5.28409C89.6278 6.32954 89.9915 7.52651 90.1506 8.875Z" fill="black"/>
<path d="M113.71 7.42045C113.619 6.50379 113.229 5.79167 112.54 5.28409C111.85 4.77651 110.915 4.52273 109.733 4.52273C108.93 4.52273 108.252 4.63636 107.699 4.86364C107.146 5.08333 106.722 5.39015 106.426 5.78409C106.138 6.17803 105.994 6.625 105.994 7.125C105.979 7.54167 106.066 7.9053 106.256 8.21591C106.453 8.52652 106.722 8.79545 107.062 9.02273C107.403 9.24242 107.797 9.43561 108.244 9.60227C108.691 9.76136 109.169 9.89773 109.676 10.0114L111.767 10.5114C112.782 10.7386 113.714 11.0417 114.562 11.4205C115.411 11.7992 116.146 12.2652 116.767 12.8182C117.388 13.3712 117.869 14.0227 118.21 14.7727C118.559 15.5227 118.737 16.3826 118.744 17.3523C118.737 18.7765 118.373 20.0114 117.653 21.0568C116.941 22.0947 115.911 22.9015 114.562 23.4773C113.222 24.0455 111.604 24.3295 109.71 24.3295C107.831 24.3295 106.195 24.0417 104.801 23.4659C103.415 22.8902 102.331 22.0379 101.551 20.9091C100.778 19.7727 100.373 18.3674 100.335 16.6932H105.097C105.15 17.4735 105.373 18.125 105.767 18.6477C106.169 19.1629 106.703 19.553 107.369 19.8182C108.044 20.0758 108.805 20.2045 109.653 20.2045C110.487 20.2045 111.21 20.0833 111.824 19.8409C112.445 19.5985 112.926 19.2614 113.267 18.8295C113.608 18.3977 113.778 17.9015 113.778 17.3409C113.778 16.8182 113.623 16.3788 113.312 16.0227C113.009 15.6667 112.563 15.3636 111.972 15.1136C111.388 14.8636 110.672 14.6364 109.824 14.4318L107.29 13.7955C105.328 13.3182 103.778 12.572 102.642 11.5568C101.506 10.5417 100.941 9.17424 100.949 7.45454C100.941 6.04545 101.316 4.81439 102.074 3.76136C102.839 2.70833 103.888 1.88636 105.222 1.29545C106.555 0.704545 108.07 0.40909 109.767 0.40909C111.494 0.40909 113.002 0.704545 114.29 1.29545C115.585 1.88636 116.593 2.70833 117.312 3.76136C118.032 4.81439 118.403 6.03409 118.426 7.42045H113.71Z" fill="#EA4335"/>
<path d="M134.679 7.42045C134.588 6.50379 134.198 5.79167 133.509 5.28409C132.819 4.77651 131.884 4.52273 130.702 4.52273C129.899 4.52273 129.221 4.63636 128.668 4.86364C128.115 5.08333 127.69 5.39015 127.395 5.78409C127.107 6.17803 126.963 6.625 126.963 7.125C126.948 7.54167 127.035 7.9053 127.224 8.21591C127.421 8.52652 127.69 8.79545 128.031 9.02273C128.372 9.24242 128.766 9.43561 129.213 9.60227C129.66 9.76136 130.137 9.89773 130.645 10.0114L132.736 10.5114C133.751 10.7386 134.683 11.0417 135.531 11.4205C136.38 11.7992 137.115 12.2652 137.736 12.8182C138.357 13.3712 138.838 14.0227 139.179 14.7727C139.527 15.5227 139.705 16.3826 139.713 17.3523C139.705 18.7765 139.342 20.0114 138.622 21.0568C137.91 22.0947 136.88 22.9015 135.531 23.4773C134.19 24.0455 132.573 24.3295 130.679 24.3295C128.8 24.3295 127.164 24.0417 125.77 23.4659C124.384 22.8902 123.3 22.0379 122.52 20.9091C121.747 19.7727 121.342 18.3674 121.304 16.6932H126.065C126.118 17.4735 126.342 18.125 126.736 18.6477C127.137 19.1629 127.671 19.553 128.338 19.8182C129.012 20.0758 129.774 20.2045 130.622 20.2045C131.455 20.2045 132.179 20.0833 132.793 19.8409C133.414 19.5985 133.895 19.2614 134.236 18.8295C134.577 18.3977 134.747 17.9015 134.747 17.3409C134.747 16.8182 134.592 16.3788 134.281 16.0227C133.978 15.6667 133.531 15.3636 132.94 15.1136C132.357 14.8636 131.641 14.6364 130.793 14.4318L128.259 13.7955C126.296 13.3182 124.747 12.572 123.611 11.5568C122.474 10.5417 121.91 9.17424 121.918 7.45454C121.91 6.04545 122.285 4.81439 123.043 3.76136C123.808 2.70833 124.857 1.88636 126.19 1.29545C127.524 0.704545 129.039 0.40909 130.736 0.40909C132.463 0.40909 133.971 0.704545 135.259 1.29545C136.554 1.88636 137.562 2.70833 138.281 3.76136C139.001 4.81439 139.372 6.03409 139.395 7.42045H134.679Z" fill="#4285F4"/>
<path d="M148.261 24L141.602 0.727272H146.977L150.83 16.8977H151.023L155.273 0.727272H159.875L164.114 16.9318H164.318L168.17 0.727272H173.545L166.886 24H162.091L157.659 8.78409H157.477L153.057 24H148.261Z" fill="#56BA89"/>
<path d="M190.554 0.727272H195.474V15.8409C195.474 17.5379 195.069 19.0227 194.259 20.2955C193.455 21.5682 192.33 22.5606 190.884 23.2727C189.437 23.9773 187.751 24.3295 185.827 24.3295C183.895 24.3295 182.205 23.9773 180.759 23.2727C179.312 22.5606 178.187 21.5682 177.384 20.2955C176.58 19.0227 176.179 17.5379 176.179 15.8409V0.727272H181.099V15.4205C181.099 16.3068 181.293 17.0947 181.679 17.7841C182.073 18.4735 182.626 19.0152 183.338 19.4091C184.05 19.803 184.88 20 185.827 20C186.781 20 187.611 19.803 188.315 19.4091C189.027 19.0152 189.577 18.4735 189.963 17.7841C190.357 17.0947 190.554 16.3068 190.554 15.4205V0.727272Z" fill="#FBBC04"/>
</svg>
